<?xml version="1.0" encoding="UTF-8" standalone="yes"?>
<svg version="1.2" baseProfile="tiny-ps" viewBox="0 0 300 300" xmlns="http://www.w3.org/2000/svg">
  <title>bimi-svg-tiny-12-ps</title>
  <g>
    <g fill="#e78871" transform="matrix(.1 0 0 -.1 0 300)">
      <path d="M0 1500V0h3000v3000H0V1500z"/>
    </g>
    <g fill="#d56c55" transform="matrix(.1 0 0 -.1 0 300)">
      <path d="M1050 2210v-310h-7c-3 0-40 12-81 26l-74 25h-83l-83 1-59-12-58-12-80-38-80-39-53-45c-29-25-73-69-98-98l-45-53-40-80c-21-44-47-109-56-145l-17-65v-240l17-65c9-36 36-103 59-150l42-85 86-86 85-85 135-67c159-79 209-95 310-103l75-6 69 16 70 17 55 29c30 17 58 30 63 30h8v-60h360l1 178v177l17-25c34-49 108-123 167-165 70-50 265-145 351-172l59-18 110 1h110l60 18c130 40 240 109 325 204l50 56 39 75c22 42 47 103 57 136l18 60-1 105-1 105-22 69c-27 87-129 293-176 357-78 107-204 197-343 245l-69 24-78 8-79 9-85-9-85-10-76-29c-125-48-232-128-317-234l-31-40-1 362v362l-27 3-28 3-3 78-3 77h-459v-310zm350 180v-30h-190v-670l-25 16-25 16v698h240v-30zm-506-555c31-8 70-22 84-30l27-15-55 5-55 6-85-15-84-15-71-35-70-35-61-51-61-50-40-57c-51-73-74-120-104-208l-23-70-1-110c0-60 3-130 7-155l8-45-15 26c-8 14-23 59-35 100l-20 74v193l21 68c12 38 35 96 52 129l30 60 77 77 77 78 64 30c81 37 160 59 224 59l51 1 58-15zm1442-13c33-11 69-24 80-31l19-11-55 7c-30 5-89 7-130 7l-75-2-64-17c-79-20-146-53-228-111l-62-45-47-57-47-57-39-80-38-80-16-75-16-75 6-90c3-49 8-101 11-115l6-25-16 28c-9 15-25 62-35 104l-20 76v152l15 62c39 166 145 304 296 387l66 36 74 20 74 20 90-4 90-5 61-19zM984 1430l25-9 26-50 25-50v-147l-26-52-26-53-32-23c-42-32-89-46-150-46h-51l-40 19c-22 10-49 28-60 40l-20 23 1 56v57l18 54 19 54 42 43c50 49 90 72 148 84 59 11 72 11 101 0zm1364-12c7-7 23-30 35-52l22-41v-162l-30-49-31-48-48-30-48-30-64-4-65-4-43 16c-24 9-52 27-63 39l-20 22-6 32-6 33 9 51c6 29 20 72 32 97l23 45 40 33c43 35 78 52 135 65 42 9 109 2 128-13zm-1143-168 16-49v-63c0-74-11-114-46-174l-26-45-40-28-39-29-51-12-51-13-58 6-57 5-39 20-39 21 51 1h52l65 20 65 20 50 48 51 47 27 60 28 60 4 82 4 83 8-5c5-3 16-27 25-55zm1335 20 21-41 6-62 6-63-17-56-16-57-33-42-32-42-55-31-55-31h-180l-39 21-39 21 78 6 78 6 63 31 63 31 40 45 40 46 22 57 22 56 1 72c1 40 2 73 3 73 2 0 12-18 23-40z"/>
    </g>
    <g fill="#da4a2b" transform="matrix(.1 0 0 -.1 0 300)">
      <path d="m1057 2514-7-7v-619l-17 7c-10 5-43 17-73 29l-55 21-120-1-120-1-59-22c-226-81-382-251-447-487l-22-79v-110l1-110 20-76c25-94 65-174 127-257l47-63 57-46 56-46 131-63 132-63 60-15 60-16h148l59 16c33 8 80 26 104 40 24 13 52 24 62 24h19v-60h340l1 188v187l16-25c9-14 55-64 102-111l86-86 135-65c74-36 158-74 185-83l50-18 110-5 111-4 79 21 79 22 71 37 70 37 80 80 80 80 38 72 38 72 19 77 20 77v128l-16 77-16 76-54 120c-30 65-71 143-90 172l-36 54-73 68-74 69-72 38c-40 21-100 46-133 57l-61 18-90 6-90 7-74-12-74-12-66-26c-36-14-95-45-131-68l-65-42-55-59c-30-33-65-73-77-89l-22-30v373l-1 372h-49l-3 78-3 77-221 3-220 2-7-6zm353-124v-30h-190v-333c0-184-3-336-6-340-4-3-19 4-35 15l-29 22v696h260v-30zm-459-569c30-11 64-28 75-36l19-15-35 8c-19 4-73 7-120 7l-85-1-74-24-75-24-73-48-72-49-43-49c-60-68-105-145-135-232l-26-73-5-120-4-120 15-62c8-35 13-63 11-63-9 0-44 82-65 150l-23 75v200l23 75c12 41 39 104 58 140l36 65 67 66 67 66 64 32c35 17 89 37 119 46l55 15 85-4 85-3 56-22zm1362 10c72-19 163-58 155-67-2-2-20 1-38 6-19 6-69 13-110 16l-76 7-74-13-75-12-67-28-67-28-66-46-65-47-52-62-51-62-33-70c-19-38-40-97-49-130l-15-59v-191l14-57c7-32 12-58 10-58-8 0-43 80-63 144l-21 68v214l16 55c9 30 32 85 52 123l36 69 49 53c82 90 205 160 322 184 22 4 74 8 116 9l76 1 76-19zm-1306-413c11-13 29-39 39-58l18-35v-160l-21-40c-37-69-99-115-174-129l-36-6-51 11-51 10-40 30-41 29v68l1 67 13 38c8 21 27 56 42 79l29 41 37 24c20 14 54 31 75 39l38 13 51 1h51l20-22zm1344 1c11-11 29-39 40-62l19-42v-136l-16-37c-17-42-67-97-105-118-15-7-48-18-75-24l-47-11-53 11-53 11-40 30-41 29v129l20 55 21 55 41 41c66 66 118 88 211 89l57 1 21-21zm-1135-187 16-56-4-65-5-66-20-46-20-45-39-39-39-38-45-20-45-21H865l-48 23c-26 13-49 26-51 30-2 3 26 7 63 7l68 1 51 17 52 18 54 48 53 49 28 63 29 63v88l1 88 18-22c9-12 24-46 33-77zm1349-21 17-63-7-50-7-51-32-61-31-61-54-37-53-37-56-12-55-11-50 6c-45 6-132 40-141 55-2 3 30 7 72 8l77 1 44 16c91 33 165 108 201 202l20 55v164l20-30c11-17 27-59 35-94z"/>
    </g>
    <g fill="#a1432f" transform="matrix(.1 0 0 -.1 0 300)">
      <path d="m1057 2514-7-7v-619l-17 7c-10 5-43 17-73 29l-55 21-120-1-120-1-59-22c-226-81-382-251-447-487l-22-79v-110l1-110 20-76c25-94 65-174 127-257l47-63 56-45c99-80 227-135 353-149l56-7 79 12 79 12 44 19c52 23 51 23 51 4v-15l228 2 227 3 5 205 5 205 14-35c8-19 31-60 52-90l36-55 75-71 74-70 94-46 95-46 55-13 55-13h200l55 13c82 20 167 58 242 108l67 44 58 63c72 80 115 150 149 246l27 75 4 120 5 120-16 70-17 70-41 85-42 85-91 90-90 91-74 38c-41 21-102 47-135 58l-61 18-90 6-90 7-74-12-74-12-66-26c-160-64-302-192-373-338l-23-47-5 498-5 499-221 3-220 2-7-6zm349-140c-3-26-6-420-6-875V670h-240v169l-8 5-8 5-48-63-48-63-38-22c-21-12-60-28-87-36l-48-15H724l-58 15c-33 9-89 31-126 50l-66 35-56 58c-30 31-72 81-92 110l-36 54-26 81-27 82-1 105v105l23 75c12 41 39 104 58 140l36 65 67 66 67 66 64 32c35 17 93 38 129 47l64 16 76-5 75-4 60-23 60-23 68-65c37-36 67-61 68-56 0 5 0 174-1 377l-1 367h264l-7-46zm946-553 67-22 75-50 75-50 46-51c25-28 61-79 80-113l35-63 21-83 22-84-6-90-6-90-19-55c-11-31-32-80-47-110l-28-55-76-76-76-76-72-37-73-36-62-15-63-15h-167l-62 16c-33 9-91 31-128 51l-66 35-59 53-59 53-42 63-42 62-25 79-25 79v215l16 55c9 30 32 85 52 123l36 69 49 53c81 90 202 158 322 184l40 9 100-3 100-4 67-21zM745 1591c-51-13-108-47-154-92l-44-42-25-56-25-55-5-73-5-73 13-47c18-68 51-123 105-172l46-42 47-21 47-21h150l53 17 52 18 54 48 53 49 29 63 28 63v190l-26 56-26 56-37 41-37 41-55 27-55 27-77 3c-42 2-89 0-106-5zm175-112c56-25 95-62 123-114l21-40v-160l-18-35c-26-49-64-88-111-113l-40-20-60-1h-61l-48 23-48 24-33 46-34 46-12 54-11 54 11 55 11 54 21 34c40 65 125 112 204 113l40 1 45-21zm1155 112c-52-13-108-48-154-93l-44-43-26-55-26-55v-200l22-47 22-47 47-51 46-50 57-27 56-27 85 1 85 1 44 16c91 34 165 108 201 202l20 55v158l-22 58-21 57-51 51-51 51-48 23-48 23-82 4-82 3-30-8zm168-105c21-8 56-26 77-41l39-27 26-51 25-51v-137l-16-37c-17-42-67-97-105-118-15-7-48-18-75-24l-47-11-53 11-53 11-39 29-40 29-28 57-28 58v67l1 67 22 46 23 46 36 30c67 55 158 73 235 46z"/>
    </g>
    <g fill="#58281e" transform="matrix(.1 0 0 -.1 0 300)">
      <path d="M1060 2205v-315h-7c-3 0-41 12-82 27l-76 27H695l-60-18c-235-70-413-258-475-502l-20-77v-202l15-63c19-82 49-151 98-229l38-62 74-69 74-69 75-36 75-37 68-16 68-16 100 5 100 4 55 22c30 11 61 21 68 21h12v-29h220l220-1v222l1 223 34-67c45-89 102-164 171-226l58-52 77-40 78-41 77-19 77-20h184l78 20 79 20 70 35 71 35 56 48c113 96 183 199 225 327l26 80 5 90 6 91-17 84-17 85-39 80-39 80-48 60c-27 33-75 81-108 108l-60 48-70 34c-38 18-99 41-135 51l-65 18h-230l-85-27-85-26-58-35c-125-75-206-163-278-299l-38-72-1 518v517h-440v-315zm350-660V670h-260v88l-1 87-27-35c-15-19-45-53-67-76l-40-41-60-23-60-23-95-1-95-1-55 19c-30 10-82 33-115 50l-60 31-66 66-66 66-42 84-41 84-16 75-16 75 5 90 5 90 17 50c9 28 31 79 47 115l31 65 81 81 81 81 65 30c36 17 87 36 114 42l49 12h144l64-21c83-28 120-51 167-106 22-24 42-44 46-44 3 0 6 167 6 370v370h260v-875zm953 276c193-67 350-240 397-439l12-53v-87l-1-87-16-59c-8-33-32-91-53-130l-37-71-70-71-71-71-85-42-84-41-70-15c-88-19-152-19-240 0l-70 15-83 40-82 41-68 67-67 67-33 62c-18 34-42 88-53 120l-20 58-6 85-5 85 16 75 16 75 36 73 36 74 66 69 66 70 65 39c81 47 150 70 239 78l67 7 70-7 70-7 58-20zM749 1587c-133-38-220-133-249-271l-12-59 6-50c4-27 16-73 27-103l21-55 51-53 52-53 58-21 58-22h138l58 22 57 21 52 51 51 52 22 59 23 60-4 100-4 100-27 51-26 51-51 46-50 45-48 16c-26 9-72 19-102 21l-55 5-46-13zm188-111 52-25 30-42 31-42 11-41 11-41-5-68-4-67-29-47-30-47-46-29-46-29-59-5-59-5-52 22-53 23-38 43-37 43-12 39c-7 22-12 62-12 89v49l15 45c23 66 78 122 142 144l38 14h50l50 1 52-24zm1142 110c-135-36-225-136-249-278l-12-65 11-58c6-32 21-79 33-104l22-46 48-47 48-46 55-21 56-21h148l55 21 55 20 48 44 49 43 29 59 30 58v200l-26 55-26 55-34 34c-19 19-50 44-69 57l-35 23-60 16c-70 18-113 18-176 1zm196-110 50-23 32-36 32-37 16-52c19-65 19-101-1-167l-15-53-43-42-42-43-49-16-49-17h-91l-50 24c-60 28-97 66-124 126l-21 45v111l15 45 16 46 43 42 43 42 39 14 39 14h55l55 1 50-24z"/>
    </g>
    <g fill="#070302" transform="matrix(.1 0 0 -.1 0 300)">
      <path d="M1060 2194v-316l-17 7c-10 4-51 18-91 31l-73 24H708l-62-16-61-16-80-41-80-42-71-70-71-70-41-70-41-70-26-80-26-80-6-95-6-95 17-82c20-102 48-169 104-257l44-70 54-52 54-53 67-40 68-39 75-23 75-24 105 1h105l60 23c33 12 68 24 78 28l17 5v-32h440l1 223 1 222 24-53c70-154 185-272 342-351l62-31 83-20 82-20h140l83 20 83 20 72 35c182 89 321 258 373 455l17 65-1 110v110l-25 77c-13 42-41 106-61 143l-37 66-62 66c-105 112-216 176-360 208l-79 17-111-5-112-5-71-23c-38-14-97-40-130-59l-59-35-80-80-81-80-47-95-47-94v1044h-440v-316zm350-649V660h-259l-3 88-3 87-48-62-47-62-65-32-64-31-88-5-88-5-56 11c-72 15-171 62-237 114l-54 41-43 60c-59 84-93 154-111 233l-16 68 1 90v90l16 59c35 132 117 258 222 341l58 45 63 25c34 14 94 31 132 37l70 12 69-12 70-12 54-24 54-23 56-59 57-59v755h260v-885zm858 304c135-24 251-87 346-190l55-59 36-64 35-63 20-78 20-78v-62c0-34-5-88-11-121l-11-59-33-73-34-72-48-61-48-61-61-44c-151-108-327-148-496-113l-53 11-82 39-82 39-61 57c-76 70-133 152-167 241l-26 67-5 110-4 110 16 65c9 36 33 99 53 140l36 75 76 75 76 76 77 37 76 38 69 14c86 17 150 18 231 4zM740 1581c-14-4-43-17-65-29l-40-20-46-49-46-49-19-49-19-50v-190l22-47 21-47 42-45 42-46 57-27 56-28h85l85 1 52 23 52 23 46 49 46 50 22 47 22 47v200l-26 56-27 57-39 39-40 40-48 23-49 24-81 3-80 2-25-8zm198-100c20-10 50-31 65-45l28-26 21-48 22-47v-130l-13-39-13-39-37-40-36-40-40-18-40-19H765l-40 21c-56 30-91 65-116 118l-22 46-1 65-1 65 18 47 18 47 41 36c22 20 54 43 72 51l31 13 68 1h68l37-19zm1121 96c-88-33-164-103-203-186l-21-46v-200l22-47 21-47 42-45 42-46 57-27 56-28h90l90 1 55 25 55 26 42 42 42 42 21 44 21 43 10 62 10 61-11 62c-15 78-41 128-93 180l-42 42-50 24-50 25-85 3-85 3-36-13zm247-112 48-31 30-47 29-47 5-68 4-69-16-50-16-49-43-42-42-41-37-16-37-15h-132l-49 25-49 25-24 32c-14 18-33 49-42 68l-18 35v140l15 36c9 19 30 52 47 71l31 36 43 22 42 21 81-3 81-3 49-30z"/>
    </g>
  </g>
</svg>